HIERARCHY
ROOT Hips
{
	OFFSET 0.00000 0.00000 0.00000
	CHANNELS 6 Xposition Yposition Zposition Zrotation Yrotation Xrotation 
	JOINT LHipJoint
	{
		OFFSET 0 0 0
		CHANNELS 3 Zrotation Yrotation Xrotation
		JOINT LeftHip
		{
			OFFSET 1.84395 -1.68683 0.74144
			CHANNELS 3 Zrotation Yrotation Xrotation
			JOINT LeftKnee
			{
				OFFSET 2.27037 -6.23779 0.00000
				CHANNELS 3 Zrotation Yrotation Xrotation
				JOINT LeftAnkle
				{
					OFFSET 2.56918 -7.05877 0.00000
					CHANNELS 3 Zrotation Yrotation Xrotation
					JOINT LeftToe
					{
						OFFSET 0.22276 -0.61202 1.71784
						CHANNELS 3 Zrotation Yrotation Xrotation
						End Site
						{
							OFFSET 0.00000 -0.00000 0.91613
						}
					}
				}
			}
		}
	}
	JOINT RHipJoint
	{
		OFFSET 0 0 0
		CHANNELS 3 Zrotation Yrotation Xrotation
		JOINT RightHip
		{
			OFFSET -1.76833 -1.68684 0.74144
			CHANNELS 3 Zrotation Yrotation Xrotation
			JOINT RightKnee
			{
				OFFSET -2.49360 -6.85110 0.00000
				CHANNELS 3 Zrotation Yrotation Xrotation
				JOINT RightAnkle
				{
					OFFSET -2.55538 -7.02085 0.00000
					CHANNELS 3 Zrotation Yrotation Xrotation
					JOINT RightToe
					{
						OFFSET -0.21516 -0.59115 1.68050
						CHANNELS 3 Zrotation Yrotation Xrotation
						End Site
						{
							OFFSET -0.00000 -0.00000 0.89604
						}
					}
				}
			}
		}
	}
	JOINT lowerback
	{
		OFFSET 0 0 0
		CHANNELS 3 Zrotation Yrotation Xrotation
		JOINT Chest
		{
			OFFSET 0.06382 1.72312 -0.19613
			CHANNELS 3 Zrotation Yrotation Xrotation
			JOINT Chest2
			{
				OFFSET -0.00055 1.73507 0.23859
				CHANNELS 3 Zrotation Yrotation Xrotation
				JOINT lowerneck
				{
					OFFSET 0 0 0
					CHANNELS 3 Zrotation Yrotation Xrotation
					JOINT Neck
					{
						OFFSET 0.03638 1.65562 0.09633
						CHANNELS 3 Zrotation Yrotation Xrotation
						JOINT Head
						{
							OFFSET 0.06388 1.62807 -0.32386
							CHANNELS 3 Zrotation Yrotation Xrotation
							End Site
							{
								OFFSET 0.00995 1.67644 -0.12021
							}
						}
					}
				}
				JOINT LeftCollar
				{
					OFFSET 0 0 0
					CHANNELS 3 Zrotation Yrotation Xrotation
					JOINT LeftShoulder
					{
						OFFSET 3.09648 1.42991 0.28122
CHANNELS 3 Zrotation Xrotation Yrotation
						JOINT LeftElbow
						{
OFFSET 0 -5.118780 -0.000000
CHANNELS 3 Zrotation Xrotation Yrotation
							JOINT LeftWrist
							{
OFFSET 0 -3.599710 0.000000
CHANNELS 3 Zrotation Xrotation Yrotation
								JOINT lhand
								{
									OFFSET 0 0 0
CHANNELS 3 Zrotation Xrotation Yrotation
									JOINT LFingers
									{
OFFSET 0 -0.628770 0.000000
CHANNELS 3 Zrotation Xrotation Yrotation
										End Site
										{
OFFSET 0 -0.506930 0.000000
										}
									}
								}
								JOINT LThumb
								{
OFFSET 0 0.000000 0.000000
CHANNELS 3 Zrotation Xrotation Yrotation
									End Site
									{
OFFSET 0 -0.514670 0.514670
									}
								}
							}
						}
					}
				}
				JOINT RightCollar
				{
					OFFSET 0 0 0
					CHANNELS 3 Zrotation Yrotation Xrotation
					JOINT RightShoulder
					{
						OFFSET -3.33565 1.14597 0.05047
CHANNELS 3 Zrotation Xrotation Yrotation
						JOINT RightElbow
						{
OFFSET 0 -5.490200 0.000000
CHANNELS 3 Zrotation Xrotation Yrotation
							JOINT RightWrist
							{
OFFSET 0 -3.206590 -0.000000
CHANNELS 3 Zrotation Xrotation Yrotation
								JOINT rhand
								{
									OFFSET 0 0 0
CHANNELS 3 Zrotation Xrotation Yrotation
									JOINT RFingers
									{
OFFSET 0 -0.691880 0.000000
CHANNELS 3 Zrotation Xrotation Yrotation
										End Site
										{
OFFSET 0 -0.557810 0.000000
										}
									}
								}
								JOINT RThumb
								{
OFFSET 0 0.000000 0.000000
CHANNELS 3 Zrotation Xrotation Yrotation
									End Site
									{
OFFSET 0 -0.566330 0.566330
									}
								}
							}
						}
					}
				}
			}
		}
	}
}
MOTION
Frames: 11
Frame Time: 0.008333333333333333
-0.005700 17.542300 8.461200 -8.777400 2.515400 11.671800 0.000000 0.000000 0.000000 -18.520000 -47.510700 24.256100 0.050800 -1.454700 -4.001000 -4.221300 44.123300 -49.536600 0.794900 5.691100 15.890600 0.000000 0.000000 0.000000 26.939800 26.190100 4.772600 -0.002300 -0.311800 0.856800 1.117600 -23.090000 -23.791000 -0.168900 -2.647700 7.299300 6.002400 0.567600 -1.928300 1.977900 1.225300 -11.555200 -1.302800 0.143800 -11.242800 -12.297400 -13.555000 2.131700 12.164600 -20.582800 18.143200 4.287800 -10.086500 7.794000 0.000000 -0.000000 0.000000 -1.823200 11.215200 -17.553200 11.943000 -19.719100 2.083000 10.103900 22.709400 9.219600 0.000000 0.000000 0.000000 -7.125000 0.000000 0.000000 -12.034200 20.704700 -7.159400 0.000000 -0.000000 0.000000 0.269100 9.935500 13.038300 -12.608100 -20.710400 -2.312900 -21.669500 48.778600 31.960200 0.000000 0.000000 0.000000 7.125000 0.000000 -0.000000 12.740000 63.417600 -5.739500
-0.005500 17.542500 8.461759 -8.736275 2.495256 11.683421 0.000000 0.000000 0.000000 -18.562611 -47.511218 24.235330 0.050359 -1.447964 -3.982386 -4.127111 44.032137 -49.649172 0.821525 5.783175 16.156494 0.000000 0.000000 0.000000 26.882201 26.198872 4.761844 -0.002471 -0.319301 0.877290 1.099205 -23.023045 -23.838721 -0.181440 -2.743464 7.565292 6.001526 0.590129 -1.901589 1.949779 1.256316 -11.566679 -1.335082 0.156485 -11.269562 -12.190136 -13.578505 1.946986 11.951790 -20.585551 18.350007 4.187599 -10.081078 7.860242 0.000000 0.000000 0.000000 -1.785523 11.179735 -17.433256 11.913863 -19.675310 2.073211 10.099906 22.991939 9.405323 0.000000 0.000000 0.000000 -7.125000 0.000000 0.000000 -12.026168 20.520436 -7.205510 0.000000 0.000000 0.000000 0.331116 10.030063 12.924932 -12.649628 -20.771695 -2.327556 -21.416417 48.738141 31.930076 0.000000 0.000000 0.000000 7.125000 0.000000 0.000000 13.011515 63.320864 -5.834469
-0.005224 17.542641 8.461841 -8.713516 2.486340 11.695265 0.000000 0.000000 0.000000 -18.613676 -47.555195 24.264847 0.050182 -1.445472 -3.975428 -4.058216 43.995813 -49.790568 0.842431 5.854371 16.362559 0.000000 0.000000 0.000000 26.850714 26.216367 4.754034 -0.002300 -0.311365 0.855477 1.128910 -23.106119 -23.708336 -0.163422 -2.604549 7.179580 6.030872 0.604679 -1.900100 1.910359 1.272793 -11.546315 -1.395403 0.160133 -11.244464 -12.021256 -13.592343 1.670113 11.771496 -20.571976 18.535414 4.084640 -10.058227 7.929908 0.000000 0.000000 0.000000 -1.717509 11.129872 -17.501223 11.943707 -19.720122 2.083249 10.258618 22.973668 9.338450 0.000000 0.000000 0.000000 -7.125000 0.000000 0.000000 -11.917597 20.580792 -7.120975 0.000000 0.000000 0.000000 0.434779 10.073738 12.817791 -12.648862 -20.770558 -2.327294 -21.314423 48.775690 32.085794 0.000000 0.000000 0.000000 7.125000 0.000000 0.000000 13.250001 63.446439 -5.982355
-0.006758 17.542641 8.461459 -8.721511 2.503596 11.679263 0.000000 0.000000 0.000000 -18.598288 -47.542037 24.247456 0.049419 -1.434390 -3.944855 -4.102317 44.020008 -49.701846 0.820726 5.780353 16.148440 0.000000 0.000000 0.000000 26.870537 26.196890 4.741756 -0.002588 -0.327352 0.899469 1.113764 -23.058795 -23.763957 -0.168292 -2.642718 7.285498 6.060884 0.594635 -1.865265 1.893010 1.260306 -11.517963 -1.430412 0.150603 -11.232983 -11.996578 -13.553685 1.458450 11.901538 -20.540868 18.635835 4.108706 -10.021071 8.007415 0.000000 0.000000 0.000000 -1.650536 11.034090 -17.527065 11.936269 -19.708992 2.080719 10.087404 22.939555 9.245072 0.000000 0.000000 0.000000 -7.125000 0.000000 0.000000 -12.044469 20.679977 -7.172614 0.000000 0.000000 0.000000 0.598490 10.114437 12.616227 -12.673768 -20.807314 -2.336086 -20.501612 48.520974 32.527402 0.000000 0.000000 0.000000 7.125000 0.000000 0.000000 14.544554 63.660217 -6.651894
-0.008100 17.543700 8.458647 -8.709793 2.530006 11.681126 0.000000 0.000000 0.000000 -18.441471 -47.434041 24.022756 0.048818 -1.425693 -3.920926 -4.034234 43.838704 -49.558705 0.841943 5.852873 16.358241 0.000000 0.000000 0.000000 26.857691 26.216593 4.720099 -0.002700 -0.337684 0.927724 1.115242 -23.068168 -23.768981 -0.175107 -2.695675 7.432475 6.092164 0.604792 -1.786747 1.855136 1.281589 -11.564845 -1.490557 0.152339 -11.333354 -12.063741 -13.528237 1.549523 12.077664 -20.540976 18.577899 4.182089 -10.019815 7.998856 0.000000 0.000000 0.000000 -1.594525 11.092882 -17.604149 11.948468 -19.727293 2.084872 10.026923 22.998475 9.136410 0.000000 0.000000 0.000000 -7.125000 0.000000 0.000000 -12.093830 20.789907 -7.172638 0.000000 0.000000 0.000000 0.724565 10.292406 12.505671 -12.792376 -20.982327 -2.378457 -17.518362 46.956213 33.118474 0.000000 0.000000 0.000000 7.125000 0.000000 0.000000 18.449470 63.432351 -8.393624
-0.008494 17.543900 8.457559 -8.657387 2.534174 11.667477 0.000000 0.000000 0.000000 -18.506469 -47.422084 24.048067 0.049753 -1.439309 -3.958561 -4.071438 43.873117 -49.510119 0.835242 5.830082 16.292184 0.000000 0.000000 0.000000 26.790438 26.162309 4.708263 -0.002700 -0.335538 0.921927 1.102105 -23.024374 -23.811166 -0.178615 -2.722257 7.506427 6.076465 0.607246 -1.737978 1.815281 1.286269 -11.589313 -1.525519 0.151791 -11.390362 -12.003813 -13.539890 1.664956 12.131166 -20.560353 18.424633 4.199938 -10.030933 7.929473 0.000000 0.000000 0.000000 -1.575718 11.057417 -17.462209 11.894742 -19.646610 2.066730 10.046992 23.192165 9.414955 0.000000 0.000000 0.000000 -7.125000 0.000000 0.000000 -12.063004 20.512911 -7.230696 0.000000 0.000000 0.000000 0.774595 10.366174 12.633031 -12.884916 -21.118398 -2.411669 -12.066760 43.728854 34.074592 0.000000 0.000000 0.000000 7.125000 0.000000 0.000000 25.327468 62.882341 -11.374991
-0.008905 17.544734 8.457019 -8.688703 2.545832 11.668026 0.000000 0.000000 0.000000 -18.455700 -47.426340 24.008517 0.048466 -1.421247 -3.908748 -4.007630 43.795258 -49.556652 0.842605 5.854982 16.364207 0.000000 0.000000 0.000000 26.830615 26.158782 4.711539 -0.002724 -0.335004 0.920427 1.106020 -23.039541 -23.803503 -0.169182 -2.649606 7.304632 6.135873 0.610107 -1.710214 1.805885 1.295588 -11.610872 -1.569413 0.148471 -11.432048 -11.986111 -13.549706 1.613579 12.078688 -20.571116 18.506740 4.174141 -10.034123 7.959577 0.000000 0.000000 0.000000 -1.560541 11.059141 -17.491994 11.904217 -19.660787 2.069931 9.925789 23.121593 9.161044 0.000000 0.000000 0.000000 -7.125000 0.000000 0.000000 -12.163969 20.769188 -7.222039 0.000000 0.000000 0.000000 0.726414 10.358285 12.899223 -12.874002 -21.102315 -2.407731 -5.580845 40.024511 35.020722 0.000000 0.000000 0.000000 7.125000 0.000000 0.000000 33.057583 62.038076 -14.550542
-0.009628 17.544394 8.457477 -8.589683 2.538489 11.631226 0.000000 0.000000 0.000000 -18.626469 -47.400099 24.050567 0.047551 -1.407898 -3.871930 -4.116430 43.893110 -49.408749 0.816894 5.767177 16.110438 0.000000 0.000000 0.000000 26.728396 26.076190 4.741638 -0.002494 -0.319762 0.878642 1.116609 -23.041617 -23.698842 -0.166833 -2.631439 7.254109 6.039314 0.610717 -1.701435 1.770264 1.289218 -11.606144 -1.554147 0.152754 -11.430837 -12.018157 -13.577555 1.626776 12.047258 -20.609029 18.538456 4.163778 -10.056191 7.973210 0.000000 0.000000 0.000000 -1.536524 11.125980 -17.637828 11.949804 -19.729309 2.085301 10.052689 22.974849 9.318209 0.000000 0.000000 0.000000 -7.125000 0.000000 0.000000 -12.064637 20.608640 -7.205077 0.000000 0.000000 0.000000 0.760888 10.329315 12.726596 -12.752151 -20.922975 -2.364024 0.409480 37.449717 35.379109 0.000000 0.000000 0.000000 7.125000 0.000000 0.000000 39.354826 60.840624 -16.650557
-0.010665 17.543484 8.456475 -8.593278 2.526552 11.620878 0.000000 0.000000 0.000000 -18.474322 -47.212603 23.866960 0.048235 -1.417626 -3.898737 -4.036263 43.706825 -49.294725 0.844612 5.861920 16.384310 0.000000 0.000000 0.000000 26.754073 26.107049 4.790283 -0.002365 -0.310851 0.854249 1.111590 -23.041143 -23.749525 -0.173765 -2.685020 7.403029 6.084457 0.644175 -1.665696 1.731578 1.336695 -11.613935 -1.625030 0.168252 -11.457264 -12.016447 -13.581860 1.590744 12.047210 -20.614847 18.561019 4.159551 -10.056548 7.987637 0.000000 0.000000 0.000000 -1.489903 11.165823 -17.895193 11.992197 -19.792863 2.099653 10.102058 22.774603 9.305607 0.000000 0.000000 0.000000 -7.125000 0.000000 0.000000 -12.030426 20.619293 -7.180686 0.000000 0.000000 0.000000 0.882298 10.380766 12.384135 -12.603356 -20.703318 -2.311135 4.418774 36.375454 35.186704 0.000000 0.000000 0.000000 7.125000 0.000000 0.000000 42.925163 59.732614 -17.336469
-0.011444 17.542829 8.456771 -8.558946 2.507696 11.618111 0.000000 0.000000 0.000000 -18.400546 -47.068491 23.724547 0.048736 -1.424862 -3.918609 -4.092755 43.670793 -49.045122 0.820716 5.780304 16.148369 0.000000 0.000000 0.000000 26.719064 26.102626 4.795821 -0.002264 -0.308838 0.848511 1.116118 -23.042849 -23.706327 -0.174304 -2.689313 7.415016 6.090583 0.651558 -1.631476 1.683358 1.346804 -11.638348 -1.681623 0.167838 -11.504881 -12.101831 -13.544274 1.584583 12.179865 -20.593489 18.603737 4.215224 -10.042323 8.024057 0.000000 0.000000 0.000000 -1.385497 11.480568 -18.517646 12.234415 -20.155253 2.182461 10.144700 21.878073 9.254994 0.000000 0.000000 0.000000 -7.125000 0.000000 0.000000 -12.003249 20.668011 -7.150273 0.000000 0.000000 0.000000 1.037386 10.558839 12.363711 -12.497377 -20.546284 -2.273829 6.474653 35.989845 35.298656 0.000000 0.000000 0.000000 7.125000 0.000000 0.000000 44.948448 59.332029 -17.924872
-0.012481 17.542512 8.459383 -8.599119 2.536337 11.642783 0.000000 0.000000 0.000000 -18.481149 -47.264546 23.910409 0.048888 -1.427052 -3.924686 -4.149928 43.849371 -49.217277 0.801624 5.714274 15.957588 0.000000 0.000000 0.000000 26.765730 26.097103 4.772365 -0.002300 -0.307215 0.844077 1.114168 -23.048081 -23.737684 -0.173724 -2.684557 7.401756 6.180241 0.655432 -1.669201 1.650839 1.350762 -11.646884 -1.766180 0.159122 -11.491277 -12.222610 -13.495955 1.533226 12.338602 -20.560322 18.671118 4.281904 -10.020189 8.081737 0.000000 0.000000 0.000000 -1.370211 11.720263 -18.700219 12.418147 -20.428700 2.246094 10.110340 21.436697 8.993535 0.000000 0.000000 0.000000 -7.125000 0.000000 0.000000 -12.043281 20.928716 -7.102620 0.000000 0.000000 0.000000 1.261548 10.882073 12.422649 -12.507438 -20.561288 -2.277340 6.540687 36.204146 35.356898 0.000000 0.000000 0.000000 7.125000 0.000000 0.000000 45.074581 59.359142 -18.018847
